<svg xmlns="http://www.w3.org/2000/svg" width="2408" height="976" class="svgbob">
  <style>
    .svgbob line, .svgbob path, .svgbob circle, .svgbob rect, .svgbob polygon {
    stroke: black;
    stroke-width: 2;
    stroke-opacity: 1;
    fill-opacity: 1;
    stroke-linecap: round;
    stroke-linejoin: miter;
}
.svgbob text {
    white-space: pre;
    fill: black;
    font-family: Iosevka Fixed, monospace;
    font-size: 14px;
}
.svgbob rect.backdrop {
    stroke: none;
    fill: white;
}
.svgbob .broken {
    stroke-dasharray: 8;
}
.svgbob .filled {
    fill: black;
}
.svgbob .bg_filled {
    fill: white;
    stroke-width: 1;
}
.svgbob .nofill {
    fill: white;
}
.svgbob .end_marked_arrow {
    marker-end: url(#arrow);
}
.svgbob .start_marked_arrow {
    marker-start: url(#arrow);
}
.svgbob .end_marked_diamond {
    marker-end: url(#diamond);
}
.svgbob .start_marked_diamond {
    marker-start: url(#diamond);
}
.svgbob .end_marked_circle {
    marker-end: url(#circle);
}
.svgbob .start_marked_circle {
    marker-start: url(#circle);
}
.svgbob .end_marked_open_circle {
    marker-end: url(#open_circle);
}
.svgbob .start_marked_open_circle {
    marker-start: url(#open_circle);
}
.svgbob .end_marked_big_open_circle {
    marker-end: url(#big_open_circle);
}
.svgbob .start_marked_big_open_circle {
    marker-start: url(#big_open_circle);
}
    <!--separator-->
    
  </style>
  <defs>
    <marker id="arrow" viewBox="-2 -2 8 8" refX="4" refY="2" markerWidth="7" markerHeight="7" orient="auto-start-reverse">
      <polygon points="0,0 0,4 4,2 0,0"></polygon>
    </marker>
    <marker id="diamond" viewBox="-2 -2 8 8" refX="4" refY="2" markerWidth="7" markerHeight="7" orient="auto-start-reverse">
      <polygon points="0,2 2,0 4,2 2,4 0,2"></polygon>
    </marker>
    <marker id="circle" viewBox="0 0 8 8" refX="4" refY="4" markerWidth="7" markerHeight="7" orient="auto-start-reverse">
      <circle cx="4" cy="4" r="2" class="filled"></circle>
    </marker>
    <marker id="open_circle" viewBox="0 0 8 8" refX="4" refY="4" markerWidth="7" markerHeight="7" orient="auto-start-reverse">
      <circle cx="4" cy="4" r="2" class="bg_filled"></circle>
    </marker>
    <marker id="big_open_circle" viewBox="0 0 8 8" refX="4" refY="4" markerWidth="7" markerHeight="7" orient="auto-start-reverse">
      <circle cx="4" cy="4" r="3" class="bg_filled"></circle>
    </marker>
  </defs>
  <rect class="backdrop" x="0" y="0" width="2408" height="976"></rect>
  <line x1="580" y1="16" x2="580" y2="160" class="solid"></line>
  <text x="578" y="172" >IDEF</text>
  <text x="618" y="172" >model&#39;s</text>
  <text x="682" y="172" >text</text>
  <text x="314" y="220" >Section</text>
  <text x="378" y="220" >of</text>
  <text x="402" y="220" >memory</text>
  <text x="714" y="220" >Loaded</text>
  <text x="770" y="220" >IDEF</text>
  <text x="810" y="220" >diagram</text>
  <polygon points="440,228 448,232 440,236" class="filled"></polygon>
  <line x1="948" y1="320" x2="948" y2="336" class="solid"></line>
  <text x="1026" y="332" >Maximum</text>
  <text x="1090" y="332" >diagram</text>
  <text x="946" y="348" >Maximum</text>
  <text x="1010" y="348" >diVgram</text>
  <text x="1074" y="348" >width</text>
  <text x="818" y="396" >object</text>
  <text x="1130" y="396" >Positioned</text>
  <text x="1218" y="396" >IDEF</text>
  <text x="1258" y="396" >diagram</text>
  <text x="1322" y="396" >object</text>
  <line x1="840" y1="408" x2="856" y2="408" class="solid"></line>
  <polygon points="856,404 864,408 856,412" class="filled"></polygon>
  <text x="1410" y="524" >Positioned</text>
  <text x="1498" y="524" >IDEF</text>
  <text x="1538" y="524" >diagram</text>
  <text x="1146" y="572" >Section</text>
  <text x="1210" y="572" >of</text>
  <text x="1234" y="572" >memory</text>
  <text x="1546" y="572" >Set</text>
  <text x="1578" y="572" >of</text>
  <text x="1602" y="572" >LibAvoid</text>
  <text x="1674" y="572" >connectors</text>
  <polygon points="1272,580 1280,584 1272,588" class="filled"></polygon>
  <text x="1858" y="684" >Positioned</text>
  <text x="1946" y="684" >IDEF</text>
  <text x="1986" y="684" >diagram</text>
  <text x="1778" y="700" >Set</text>
  <text x="1810" y="700" >of</text>
  <text x="1834" y="700" >LibVvoid</text>
  <text x="1906" y="700" >connectors</text>
  <text x="1578" y="748" >Section</text>
  <text x="1642" y="748" >of</text>
  <text x="1666" y="748" >disk</text>
  <text x="1962" y="748" >Set</text>
  <text x="1994" y="748" >of</text>
  <text x="2018" y="748" >IDEF</text>
  <text x="2058" y="748" >diagrams</text>
  <polygon points="1688,756 1696,760 1688,764" class="filled"></polygon>
  <text x="10" y="940" >Node:A</text>
  <line x1="56" y1="936" x2="64" y2="936" class="solid"></line>
  <text x="66" y="940" >0</text>
  <text x="610" y="940" >Title:</text>
  <text x="874" y="220" >object</text>
  <text x="490" y="236" >Loads</text>
  <text x="538" y="236" >a</text>
  <text x="554" y="236" >source</text>
  <text x="610" y="236" >XML</text>
  <text x="642" y="236" >file</text>
  <text x="1154" y="332" >height</text>
  <text x="658" y="396" >Loaded</text>
  <text x="714" y="396" >IDEF</text>
  <text x="754" y="396" >diagram</text>
  <text x="890" y="412" >Positions</text>
  <text x="970" y="412" >a</text>
  <text x="946" y="428" >gram</text>
  <text x="986" y="412" >loaded</text>
  <text x="986" y="428" >object</text>
  <text x="1042" y="412" >IDEF</text>
  <text x="1082" y="412" >dia</text>
  <text x="1602" y="524" >object</text>
  <text x="1306" y="588" >Generates</text>
  <text x="1386" y="588" >a</text>
  <text x="1402" y="588" >set</text>
  <text x="1434" y="588" >of</text>
  <text x="1370" y="604" >connectors</text>
  <text x="1458" y="588" >LibAvoid</text>
  <text x="2050" y="684" >object</text>
  <text x="1722" y="764" >Writes</text>
  <text x="1778" y="764" >a</text>
  <text x="1794" y="764" >set</text>
  <text x="1826" y="764" >of</text>
  <text x="1850" y="764" >IDEF</text>
  <text x="1794" y="780" >m</text>
  <text x="1810" y="780" >files.</text>
  <text x="1890" y="764" >diagra</text>
  <g>
    <line x1="4" y1="8" x2="2396" y2="8" class="solid"></line>
    <line x1="4" y1="8" x2="4" y2="952" class="solid"></line>
    <line x1="2396" y1="8" x2="2396" y2="952" class="solid"></line>
    <line x1="4" y1="232" x2="24" y2="232" class="solid"></line>
    <line x1="4" y1="760" x2="1688" y2="760" class="solid"></line>
    <line x1="4" y1="920" x2="2396" y2="920" class="solid"></line>
    <line x1="604" y1="920" x2="604" y2="952" class="solid"></line>
    <line x1="1804" y1="920" x2="1804" y2="952" class="solid"></line>
    <line x1="4" y1="952" x2="2396" y2="952" class="solid"></line>
    <line x1="1700" y1="712" x2="1956" y2="712" class="solid"></line>
    <line x1="1700" y1="712" x2="1700" y2="808" class="solid"></line>
    <line x1="1956" y1="712" x2="1956" y2="808" class="solid"></line>
    <line x1="1956" y1="760" x2="2396" y2="760" class="solid"></line>
    <line x1="1700" y1="808" x2="1956" y2="808" class="solid"></line>
  </g>
  <g>
    <line x1="452" y1="184" x2="708" y2="184" class="solid"></line>
    <line x1="452" y1="184" x2="452" y2="280" class="solid"></line>
    <line x1="708" y1="184" x2="708" y2="280" class="solid"></line>
    <line x1="708" y1="232" x2="844" y2="232" class="solid"></line>
    <line x1="844" y1="232" x2="844" y2="384" class="solid"></line>
    <line x1="452" y1="280" x2="708" y2="280" class="solid"></line>
  </g>
  <g>
    <line x1="36" y1="232" x2="440" y2="232" class="solid"></line>
    <line x1="36" y1="232" x2="36" y2="584" class="solid"></line>
    <line x1="36" y1="584" x2="1272" y2="584" class="solid"></line>
  </g>
  <g>
    <line x1="868" y1="360" x2="1124" y2="360" class="solid"></line>
    <line x1="868" y1="360" x2="868" y2="456" class="solid"></line>
    <line x1="1124" y1="360" x2="1124" y2="456" class="solid"></line>
    <line x1="1124" y1="408" x2="1860" y2="408" class="solid"></line>
    <line x1="1412" y1="408" x2="1412" y2="512" class="solid"></line>
    <line x1="1860" y1="408" x2="1860" y2="648" class="solid"></line>
    <line x1="868" y1="456" x2="1124" y2="456" class="solid"></line>
  </g>
  <g>
    <line x1="1284" y1="536" x2="1540" y2="536" class="solid"></line>
    <line x1="1284" y1="536" x2="1284" y2="632" class="solid"></line>
    <line x1="1540" y1="536" x2="1540" y2="632" class="solid"></line>
    <line x1="1540" y1="584" x2="1780" y2="584" class="solid"></line>
    <line x1="1780" y1="584" x2="1780" y2="688" class="solid"></line>
    <line x1="1284" y1="632" x2="1540" y2="632" class="solid"></line>
  </g>
</svg>
